<svg xmlns="http://www.w3.org/2000/svg" id="intro" alt="intro" title="intro" width="640" height="480" viewBox="-80 -10 480 360">
  <path d="M173 13.3c0 .4 1.6 4 3.6 8 4.5 8.7 7 16 9 25 1.8 8.5 1.8 8.6-.2 6-2.5-3.7-4.4-1.2-4.4 5.6v5.5l-2.8-5c-4-7-8.2-12.5-9.8-12.5-2 0-1.8.8 2 8 5.7 10.7 9.2 23 10 35 .4 4.5.3 5-1.3 4-1-.5-2.3-3-3-5.4-.5-2.5-2.6-7-4.5-10.3-2-3.2-4-7.3-4.6-9-.7-2-1.5-3-2-2.8-.4.2-1-.8-1.3-2.3-.6-3-6-7.6-8.2-6.8-2 .8-1 7.3 1.6 10.2 2 2 2 2.3.7 1.8-1-.3-1.7-.2-1.7.3 0 2.4 3.3 10.3 5 11.8 1 1 1.7 2.2 1.4 3-.3.6 1.3 4.2 3.5 8 4 6.8 4 7 13.7 11.6 11.5 5.6 17.5 9.7 26 18.3 11.7 11.3 20.5 26.8 25 43.3 2 7.4 2.5 31 1 39-3 15.8-12 33.5-22.5 45l-3.8 4-17.7.7-17.6.6-7.7 6c-16.4 13.2-31.4 16.4-38.4 8.4-1-1-2.5-4.3-3.5-7.2-1.2-3.8-2.7-6-5.3-8-2-1.4-4.3-3.3-5-4-1.4-2-1.6-6.2-.2-6.2 2 0 1-2-1.3-3-4-1.4-5-3.5-4.3-8.5 1-6.2-.3-8-6-8.7-7.7-1-10.3-5.3-6.8-12 1.8-3.5 6.4-17.2 6.4-19.2 0-.8-1.3-1.3-3-1.4-3 0-8-3.4-8-5.2 0-.3 1.8-.4 4-.2 4.8.5 5.2-.8 1.3-4.8-7-7-7.6-8.8-7-18.4.7-7.3 1-10.5 2.2-17.2.2-1.5-.4-2.5-2-3.3-3.3-1.3-6.5-6.7-6.5-10.8 0-3.8 1.7-4.2 3-.8.5 1.3 1.4 2.7 2 3 1 .7 1 .3 0-1.2-2-3.8-1-7.5 2.8-12.7 5.2-7 14-12.3 29-18 13-4.6 16.5-6.4 10-5l-5.2 1c-17 3.7-35.6 14-47.5 26.4-12 12.6-20.7 29.8-24.5 48.5-.4 1.6-.8 7.5-1 13-1 29.6 12.2 56.8 36.6 75 7 5 21 12 27.8 13.8 5.8 1.4 5.7 2-.7 5.2-4.8 2.5-21.2 19.2-24.3 25-3.4 6-5.5 12-6.2 18.2l-.6 4.8 3.3-5c8-11.5 17.7-19.5 27.2-22 3.6-1 6.5-2.2 6.5-2.6 0-1.5 1.7-1 3.4.6 1 .8 1.6 1 1.6.4 0-.7.6-.8 2 0 1 .5 2 .6 2.4.3.3-.3.6.2.6 1.3 0 1.4.5 1 1.5-1 .7-1.8 1.4-2.7 1.4-2.2 0 .6.6 0 1.4-1 .7-1 2-2 3-2 1.5-.2 1.7.4 1.4 3.2-.5 4.4.2 4.3 3.2-.5 1.4-2 2.8-3.3 3-2.8.7 1 4-8 4-10.6 0-3.2 6.5-4.8 7.4-2 .4 1 1.5 3 2.6 4.4l2 2.5-1-3.5c-1.3-4.5-1.3-6.3 0-5.5.6.4 1.6.3 2.3-.2.7-.5 2.3-1 3.8-1 2.2-.4 3 .3 5 4.7 1.5 3.6 2.7 5 4 4.8 1.2-.3 1.5-1.5 1.4-6.3 0-3.3.3-6.3.8-6.6.6-.5 3.7 2.5 7 6.5 6.6 8.4 7.2 9 8.7 7.2 1-1.5.4-4.3-2.5-11l-1.7-4 3.7 3.2c2.6 2 4 2.8 4.8 2 .7-.6.6-1.4-.2-2.4-2.2-2.7.5-2.4 4.8.5 2.3 1.7 4.6 3 5 3 .4 0 2.7 1.4 5.2 3 4.6 3 10 4 9.6 1.7-.7-3.4-2.7-6.6-5.3-8.5l-2.8-2 2.5-.3c6.4-.4 10.2-1 10.8-1.4.3-.3-.8-.6-2.4-.7-6.7-.3-12.4-2-12.4-4 0-.4 2-.2 4.4.5 4.7 1.4 24.4 2 23 .5-.5-.5-2.2-1-4-1.3-1.5-.3-1-.3 1.6 0 6.8.6 13.3.4 14.4-.7 1.3-1.3-4.7-6.6-9.2-8l-3.7-1.3 5-1.5 5-1.5-3.5-.8c-2-.5-6-1.4-9.3-2-3.2-.6-5.7-1.3-5.5-1.5l8.8-1c10.3-.6 15.3-1.2 20.2-2.6 2-.6 5-1 6.5-.8 1.5 0 3.7-.3 4.8-1l3-1.2c7.8-1.5 0-7.2-10.5-7.6-3 0-7.3-.4-9.5-.8-7.6-1.3-12-1.8-13.7-1.8-3.4 0-1.8-1.7 2.5-2.8 2.3-.6 5-1.5 6.2-2 1-.6 5.6-2 10-3 7.8-2 12.8-4.4 7-3.4l-3 .5 3.2-2c1.8-1 4.5-2.2 6-2.6 6.8-1.5 7-1.7 2.8-3l-4-1.4 5.5.6c4.8.5 5.7.3 6.7-1.4 2.6-4.3-4.7-5.7-20-4-3.7.5-6.7.7-6.7.4 0-.3 1.6-1.3 3.5-2.2 2.6-1.2 3.4-2 3-3.4-.4-1.4.4-2 4-3 5-1.2 5.4-2 1.2-2.2-1.4 0-2.4-.5-2-1 0-.3 1.8-.2 3.7.3 2.6.8 4.3.6 7.7-1l4.5-2h-8l5.5-3.5c3-2 6-3.5 7-3.5.8 0 3.5-1.8 6-4 4.2-4 4.4-4.3 2.6-5.6-1.3-1-2.4-1-3.7-.3-1.2.6-2 .7-2 .3 0-1.6-5.4-1.3-7.3.4-1 1-1.7 1.2-1.3.5 1-1.5 1-1.5-5.4.4-3 1-6 1.7-7 2-.8 0-4.6 1-8.4 2-3.7.8-7 1.3-7.3 1-.2-.2 2.4-1.3 6-2.5 3.4-1 8-2.7 10.2-3.6 4-1.5 4-1.5-4.4-1l-11 1.2c-2.8.7-2.7.6 12-9.8 12-8.3 18-13 17.6-13.5-.2-.2-1.2 0-2.3.6-1 .5-3.8 2-6.3 3l-4.5 2.2 2.4-2.6c1.2-1.4 3-2.8 4-3 1.5-.6 5.8-6.4 7.2-9.8 1-2.5-2.2-3-7-1.4-2.8 1-4.2 1-4.2.3 0-.6-1 0-2.2 1-2.6 2.2-13 8.3-14.4 8.3-.5 0-.4-.4 0-.8 2-1.3 8.6-12.5 8.6-14.2 0-1.6-2.2-1-3.7.7-1 1.2-1 1 0-.7 1-1.4 3.2-5.5 5-9 2-3.7 4.2-7.2 5-8 1-.7 1.7-1.6 1.7-2 0-.5.5-2 1.2-3.7 2-4.7 1.7-7.3-.5-7.3-2.3 0-7.7 3-7.7 4.3 0 .5-.6.4-1.4-.2-1-1-2.5.2-7.3 5.6-10.3 12-13.6 15.2-12.2 12.4.7-1.4 2.2-3.5 3.3-4.7 1.2-1.4 1.7-2.8 1.3-4-.6-1.5-.8-1.5-1.6-.3-1.4 2.2-1.2.5.4-3.2.8-1.8 2-5 3-7s1.6-4 1.6-4.6c0-.5 1.8-4.2 4-8.2 3-5.2 3.7-7.7 3-8.4-.8-.8-1.4-.6-2 .4-.8 1-1 .4-.5-2.4.3-2 .8-4.2 1-4.7.4-.6 0-1-.4-1-.5 0 0-1 1-2 1.4-1.4 2-3 2-4.8-.3-1.5-.2-3.2.2-3.7.8-1.3-1-5.5-2.2-5.5-2 0-8.8 7.5-11.3 12.5-4.2 8-5 8.6-4.4 3.7.2-2.3.3-4.2 0-4.2l-5 9.5c-7 14-7.6 13.8-4.3-1.4 2-9.6 5-17 7.8-20.3 1.6-2 1.6-2-.8-1.2-1.4.4-3 1-3.4 1.6-.6.6-1.3 1-1.7 1-.8 0-.8-.7-.8-11.5 0-12.3-.2-15-1.3-17.2-1-1.8-1.7-2-3-1.2-1.2.6-2 1.7-2 2.4 0 .8-.7 2-1.6 2.7-1.4 1.2-1.5 1-1-2.2 1-4-.7-6-2.3-3-1 2-4 13.6-4.3 16.3 0 1-.5 1.6-1 1.4-.4-.3-1.8 2-3.2 4.8-3 6-2.8 6.3-2.7-10.7 0-10.7 0-12.3-1-9.3-.5 2-1.4 3.8-2 3.8-.5 0-.8-1.7-.7-3.8.4-4-.3-6.7-2.7-12l-1.6-3.3-2.3 2c-1.3 1.3-2.4 3-2.4 4s-.5 2-1 2.7c-1 1-1.3 2.7-2 11.3 0 .8-1.3-1.7-2.8-5.5-1.6-4-4.4-9.5-6.4-12.5C180 20 173 12 173 13.3zm112 165c0 .3-.7.8-1.6 1-.8.4-1.2.3-1-.3.7-1 2.6-1.4 2.6-.6zm-27 24c0 .6-12 4.7-13.4 4.6-1.4 0 10.4-4.8 12.2-5 .6 0 1.2.2 1.2.4z"/>
  <path d="M135.5 79c-1.7.7-1.7 1-.2 1 1 0 1.7.4 1.7.8 0 1.3 7.5 5.2 10 5.3 1.8.2 2 .4.8.7-1 .2-1.8.8-1.8 1 0 1.5 4 7.5 4.7 7 .3-.3-.5-2-1.7-3.6-1.3-1.8-1.6-2.8-.8-2.5.8.3 2.2 2 3.2 3.5 1 1.7 2.3 3 3 3 .6 0 1.8.3 2.6.5l5 1c1.8.3 3.8.8 4.4 1 .6.4.2-.2-1-1.2-1-1-3.8-4.3-6-7.4-3.2-4.2-5.5-6.2-9.2-7.8-5.7-2.5-11.8-3.4-14.7-2.2zM80 130c0 3 3.2 8.5 6 10 1.7 1 2 .8 1.3-.7-.3-1-1.5-2.6-2.6-3.7-1-1-2.5-3.3-3.3-5-1.3-3-1.3-3-1.4-.6z"/>
</svg>
