<?xml version="1.0" encoding="iso-8859-1"?>
<!-- Generator: Adobe Illustrator 16.0.0, SVG Export Plug-In . SVG Version: 6.00 Build 0)  -->
<!DOCTYPE svg PUBLIC "-//W3C//DTD SVG 1.1//EN" "http://www.w3.org/Graphics/SVG/1.1/DTD/svg11.dtd">
<svg version="1.1" id="Capa_1" xmlns="http://www.w3.org/2000/svg" xmlns:xlink="http://www.w3.org/1999/xlink" x="0px" y="0px"
	 width="720px" height="720px" viewBox="0 0 720 720" style="enable-background:new 0 0 720 720;" xml:space="preserve">
<g>
	<path d="M217.025,113.897c-62.189,0-118.06,9.946-156.533,25.747l-10.245-20.799c-1.054-2.139-3.231-3.494-5.617-3.494H6.261
		c-2.198,0-4.234,1.153-5.367,3.036c-1.131,1.884-1.192,4.224-0.161,6.165l20.503,38.548c-9.255,8.718-14.342,18.205-14.342,28.131
		c0,9.925,5.087,19.411,14.342,28.131L0.732,257.911c-1.032,1.939-0.97,4.279,0.161,6.164c1.132,1.885,3.169,3.037,5.367,3.037
		h38.371c2.385,0,4.563-1.355,5.617-3.496l10.245-20.799c25.011,10.272,69.326,20.891,94.043,22.27
		c2.168,0.201,4.329,0.389,6.481,0.568l14.191,38.254c2.085,5.619,7.445,9.351,13.44,9.351h85.521c5.994,0,11.355-3.731,13.44-9.351
		l14.177-38.219c73.833-6.234,125.371-24.693,125.371-74.458C427.156,123.991,333.076,113.897,217.025,113.897z M218.643,286.758
		c0,3.034-2.472,5.506-5.507,5.506h-9.083c-3.036,0-5.506-2.472-5.506-5.506v-6.126c0-3.036,2.47-5.506,5.506-5.506h9.083
		c3.036,0,5.507,2.47,5.507,5.506V286.758z M263.932,286.758c0,3.034-2.471,5.506-5.505,5.506h-9.084
		c-3.036,0-5.507-2.472-5.507-5.506v-6.126c0-3.036,2.471-5.506,5.507-5.506h9.084c3.035,0,5.505,2.47,5.505,5.506V286.758
		L263.932,286.758z"/>
</g>
<g>
</g>
<g>
</g>
<g>
</g>
<g>
</g>
<g>
</g>
<g>
</g>
<g>
</g>
<g>
</g>
<g>
</g>
<g>
</g>
<g>
</g>
<g>
</g>
<g>
</g>
<g>
</g>
<g>
</g>
</svg>
