<svg xmlns="http://www.w3.org/2000/svg" id="docking" alt="docking" title="docking" viewbox="-70 20 560 400" width="640" height="480">
  <path d="M217 114c-62.2 0-118 9.8-156.5 25.6l-10.3-20.8c-1-2-3.2-3.4-5.6-3.4H6.3c-2.2 0-4.3 1-5.4 3-1.2 2-1.3 4.2-.3 6.2L21.2 163C12 172 7 181.4 7 191.3c0 10 5 19.4 14.2 28.2L.7 258c-1 2-1 4.2.2 6 1 2 3 3 5.3 3h38.3c2.4 0 4.6-1.2 5.6-3.4l10.3-20.8c25 10.3 69.3 21 94 22.3l6.5.7 14.2 38.2c2 5.5 7.5 9.3 13.4 9.3h85.6c6 0 11.3-3.8 13.4-9.4l14.2-38.3c73.8-6.2 125.4-24.7 125.4-74.5 0-67.2-94-77.3-210.2-77.3zm1.6 172.8c0 3-2.4 5.5-5.5 5.5h-9c-3 0-5.5-2.5-5.5-5.5v-6.2c0-3 2.5-5.5 5.6-5.5h9c3.2 0 5.6 2.6 5.6 5.6v6.2zm45.3 0c0 3-2.5 5.5-5.6 5.5h-9c-3 0-5.6-2.5-5.6-5.5v-6.2c0-3 2.5-5.5 5.5-5.5h9c3.2 0 5.6 2.6 5.6 5.6v6.2z"/>
</svg>
