<svg xmlns="http://www.w3.org/2000/svg" id="charlotte" alt="charlotte" title="charlotte" width="640" height="480" viewbox="-110 -20 720 540">
  <path d="M420.8 392.7c1.2.3 2.5.5 3.7.5 3.5 0 7-1.4 9.4-4l44.5-47.4c5-5.2 4.7-13.3-.5-18.2-5.2-5-13.3-4.6-18.2.6l-39 41.6-13-4c0-8-1.2-15.6-2.8-23h12c3.7 0 7-1.5 9.5-4l52-56.5c5-5.3 4.6-13.4-.6-18.2-5.3-4.7-13.4-4.4-18.3.8L411.5 313h-16c-10.4-18.8-26.8-32.3-45.8-36.6v-243c7.5-1.7 13.2-8.2 13.2-16.3 0-9.3-7.7-17-17.2-17H31.3C29 0 27 .5 24.8 1.3c-4.2 1.8-7.5 5-9.3 9.3-.8 2-1.3 4.3-1.3 6.5v314.6c0 9.5 7.7 17 17 17 9.6 0 17.3-7.5 17.3-17V281c52-36 92.4-63.3 142.4-80l2 2.2c3.5 3.3 8 5 12.3 5 4.3 0 8.7-1.7 12-5 6.8-6.7 6.8-17.5 0-24.2l-1-1c15.8-50.5 42-91.3 76.8-143.7h31v242c-19.3 4.5-36 18.4-46.3 37.8h-15.4L214 262c-4.8-5.2-13-5.5-18.2-.7-5.2 5-5.5 13-.7 18.3l52.2 56.4c2.4 2.6 5.8 4 9.4 4h12c-1.6 7.3-2.7 14.6-2.7 22.4v.8l-13 4-39-41.6c-5-5.2-13-5.4-18.2-.6-5.2 5-5.4 13-.6 18.2l44.6 47.4c2.5 2.6 6 4 9.4 4 1.3 0 2.5-.2 3.8-.5l16.6-5c1 3.5 2 7 3.3 10.4l-12-3.3c-4.4-1.3-9.3 0-12.6 3.4l-43.2 44.4c-5 5-4.8 13.2.3 18.2 2.5 2.4 5.7 3.6 9 3.6s6.6-1.3 9.2-4l37.7-38.6 24.8 7.2-14 6.2c-2.2 1-4 2.6-5.4 4.6L243.5 475c-4 5.8-2.4 13.8 3.4 17.8 2 1.5 4.6 2.2 7 2.2 4.2 0 8.3-2 10.8-5.7L286 458l13.8-6.2c-.8 2.6-1.4 5.2-1.4 8 0 6.8 2.8 13 7.4 18.3l-1.5 2c-3.5 4.2-3 10.5 1.3 14 1.8 1.5 4 2.2 6.3 2.2 2.8 0 5.6-1.2 7.5-3.6l3.2-3.8c4.4 1.4 9 2.2 14.2 2.2 5 0 9.6-.8 14-2.2l3.2 3.8c2 2.4 4.8 3.6 7.6 3.6 2.3 0 4.5-.7 6.3-2.3 4.4-3.5 5-9.8 1.5-14l-1.6-2c4.5-5 7.3-11.4 7.3-18.3 0-3.2-.7-6.2-1.8-9l14.2 6.3 21.3 31.3c2.4 3.7 6.5 5.7 10.6 5.7 2.5 0 5-.8 7.2-2.2 6-4 7.4-12 3.4-18L407 439.6c-1.4-2-3.2-3.5-5.4-4.5l-14-6.2 24.7-7.2 37.8 38.7c2.6 2.6 6 4 9.3 4 3.2 0 6.4-1.3 9-3.7 5-5 5-13 .2-18.2l-43-44.3c-3.5-3.3-8.4-4.6-13-3.3l-11 3.3 3-10.4 16.3 5zM72.8 34.3h89.5C149.5 54 139 72.3 131 92.5L72.6 34.3zm33.4 82c-20 8.3-38.3 19.4-57.7 32.7V58.5l57.7 57.7zm-57.7 53.5c25.3-17.6 46.7-31.2 71-40.3l24.7 24.7c-33.4 12.8-62 31-95.7 54.4v-38.8zm95.8-64c8.6-24.4 21.6-46 38.5-71.5h38.6c-22 33.2-40 62.7-52.2 96.5l-25-25zM48.5 260.3v-30.7c39.6-27.6 71-48.6 109-62l19.8 20c-45.2 16.3-83 41-128.8 72.7zm154.2-96l-20-19.8c12.6-38.4 32.6-70 59.3-110h30.5c-29.8 45-54 84-69.8 130z"/>
</svg>
