<?xml version="1.0" encoding="iso-8859-1"?>
<!-- Generator: Adobe Illustrator 18.0.0, SVG Export Plug-In . SVG Version: 6.00 Build 0)  -->
<!DOCTYPE svg PUBLIC "-//W3C//DTD SVG 1.1//EN" "http://www.w3.org/Graphics/SVG/1.1/DTD/svg11.dtd">
<svg version="1.1" id="Capa_1" xmlns="http://www.w3.org/2000/svg" xmlns:xlink="http://www.w3.org/1999/xlink" x="0px" y="0px"
	 width="720px" height="720px" viewBox="0 0 720 720" style="enable-background:new 0 0 720 720;" xml:space="preserve">
<path id="XMLID_550_" d="M420.759,392.659c1.258,0.383,2.515,0.568,3.784,0.568c3.478,0,6.888-1.424,9.351-4.039l44.634-47.417
	c4.851-5.17,4.623-13.295-0.55-18.156c-5.166-4.875-13.278-4.633-18.143,0.546l-39.174,41.593l-12.846-3.945
	c-0.032-8.021-1.204-15.633-2.855-22.998h12.159c3.575,0,6.986-1.496,9.428-4.132l52.066-56.413
	c4.799-5.218,4.485-13.341-0.72-18.156c-5.219-4.792-13.324-4.482-18.163,0.727l-48.249,52.285h-15.91
	c-10.45-18.926-26.838-32.38-45.859-36.672V33.468c7.529-1.814,13.232-8.27,13.232-16.343c0-9.458-7.68-17.125-17.128-17.125H31.332
	c-2.239,0-4.446,0.452-6.554,1.323c-4.184,1.738-7.511,5.068-9.252,9.254c-0.871,2.092-1.323,4.315-1.323,6.548l0,0v314.478
	c0,9.457,7.661,17.124,17.128,17.124c9.468,0,17.128-7.667,17.128-17.124v-50.501c52.013-36.221,92.471-63.432,142.396-80.208
	l2.291,2.303c3.345,3.342,7.726,5.016,12.113,5.016c4.38,0,8.761-1.673,12.107-5.016c6.69-6.683,6.69-17.527,0-24.22l-1.088-1.087
	c15.819-50.376,41.878-91.21,76.836-143.636h30.911V276.45c-19.335,4.357-35.927,18.241-46.363,37.673h-15.407l-48.249-52.291
	c-4.838-5.218-12.95-5.519-18.169-0.727c-5.198,4.809-5.52,12.938-0.714,18.157l52.066,56.423c2.442,2.631,5.853,4.128,9.429,4.128
	h11.91c-1.539,7.15-2.625,14.519-2.625,22.262c0,0.251,0.052,0.478,0.052,0.72l-12.879,3.964l-39.174-41.587
	c-4.852-5.16-12.977-5.421-18.143-0.542c-5.172,4.858-5.401,12.987-0.557,18.153l44.642,47.406c2.461,2.62,5.872,4.04,9.349,4.04
	c1.271,0,2.541-0.183,3.778-0.57l16.631-5.107c0.936,3.628,1.951,7.19,3.261,10.594l-11.727-3.404
	c-4.551-1.336-9.468-0.033-12.781,3.378l-43.116,44.28c-4.936,5.078-4.818,13.214,0.27,18.163c2.475,2.426,5.722,3.64,8.95,3.64
	c3.339,0,6.685-1.296,9.212-3.889l37.714-38.751l24.808,7.199l-14.018,6.263c-2.207,0.978-4.066,2.55-5.421,4.533l-23.244,34.361
	c-3.981,5.871-2.442,13.859,3.424,17.837c2.207,1.498,4.701,2.209,7.196,2.209c4.112,0,8.158-1.974,10.652-5.644l21.208-31.327
	l13.814-6.174c-0.818,2.543-1.407,5.163-1.407,7.913c0,6.874,2.809,13.179,7.424,18.338l-1.571,1.906
	c-3.477,4.222-2.894,10.479,1.342,13.966c1.84,1.532,4.08,2.276,6.305,2.276c2.855,0,5.704-1.232,7.642-3.596l3.175-3.84
	c4.387,1.414,9.133,2.249,14.149,2.249c5.022,0,9.769-0.835,14.149-2.249l3.182,3.84c1.938,2.364,4.78,3.596,7.642,3.596
	c2.226,0,4.465-0.744,6.305-2.276c4.23-3.486,4.819-9.744,1.342-13.966l-1.578-1.906c4.616-5.159,7.431-11.464,7.431-18.338
	c0-3.195-0.772-6.225-1.873-9.124l14.28,6.374l21.207,31.333c2.495,3.669,6.541,5.643,10.653,5.643c2.495,0,4.983-0.71,7.195-2.206
	c5.867-3.98,7.405-11.959,3.424-17.838l-23.243-34.368c-1.356-1.984-3.215-3.556-5.421-4.534l-14-6.257l24.79-7.199l37.713,38.762
	c2.528,2.592,5.867,3.889,9.213,3.889c3.228,0,6.475-1.214,8.95-3.641c5.081-4.949,5.199-13.078,0.269-18.162l-43.122-44.287
	c-3.327-3.405-8.224-4.734-12.794-3.38l-11.189,3.255c1.224-3.329,2.108-6.842,2.979-10.371L420.759,392.659z M72.679,34.253h89.642
	c-12.794,19.678-23.414,38.192-31.388,58.269L72.679,34.253z M106.21,116.242c-19.918,8.362-38.264,19.46-57.75,32.721V58.479
	L106.21,116.242z M48.46,169.751c25.385-17.593,46.782-31.166,71.015-40.238l24.717,24.727
	c-33.379,12.745-61.899,31.009-95.731,54.374V169.751z M144.297,105.881c8.577-24.463,21.574-46.036,38.551-71.628h38.585
	c-21.915,33.215-39.973,62.718-52.217,96.553L144.297,105.881z M48.46,260.244v-30.774c39.684-27.607,71.132-48.612,109.115-61.857
	l19.734,19.75C132.119,203.799,94.384,228.4,48.46,260.244z M202.681,164.29l-19.938-19.934
	c12.532-38.352,32.601-70.098,59.23-110.103h30.57C242.705,79.261,218.454,118.481,202.681,164.29z"/>
<g>
</g>
<g>
</g>
<g>
</g>
<g>
</g>
<g>
</g>
<g>
</g>
<g>
</g>
<g>
</g>
<g>
</g>
<g>
</g>
<g>
</g>
<g>
</g>
<g>
</g>
<g>
</g>
<g>
</g>
</svg>
