<?xml version='1.0' encoding='iso-8859-1'?>
<svg version="1.1" xmlns="http://www.w3.org/2000/svg" width="720px" height="720px" viewBox="0 0 720 720" xmlns:xlink="http://www.w3.org/1999/xlink" enable-background="new 0 0 720 720">
  <g>
    <path d="m214,0c-9.111,0-16.5,7.387-16.5,16.5v18h-98v-18c0-9.113-7.387-16.5-16.5-16.5-9.111,0-16.5,7.387-16.5,16.5v264c0,9.113 7.389,16.5 16.5,16.5 9.113,0 16.5-7.387 16.5-16.5v-16h98v16c0,9.113 7.389,16.5 16.5,16.5 9.113,0 16.5-7.387 16.5-16.5v-264c0-9.113-7.387-16.5-16.5-16.5zm-114.5,133.5h98v32h-98v-32zm98-66v33h-98v-33h98zm-98,164v-33h98v33h-98z"/>
  </g>
</svg>
