<?xml version="1.0" encoding="iso-8859-1"?>
<!-- Generator: Adobe Illustrator 19.0.0, SVG Export Plug-In . SVG Version: 6.00 Build 0)  -->
<svg version="1.1" id="Layer_1" xmlns="http://www.w3.org/2000/svg" xmlns:xlink="http://www.w3.org/1999/xlink" x="0px" y="0px"
	 width="720px" height="720px" viewBox="0 0 720 720" style="enable-background:new 0 0 720 720;" xml:space="preserve">
<g>
	<g>
		<path d="M345.767,222.775H166.235c-20.614,0-37.384,16.77-37.384,37.385v92.598c0,20.614,16.77,37.384,37.384,37.384h179.532
			c20.614,0,37.384-16.77,37.384-37.384v-92.598C383.152,239.545,366.381,222.775,345.767,222.775z M345.767,357.634H166.235
			c-2.689,0-4.876-2.188-4.876-4.876v-92.598c0-2.689,2.188-4.876,4.876-4.876h179.532c2.689,0,4.876,2.188,4.876,4.876v92.598
			h0.001C350.644,355.446,348.456,357.634,345.767,357.634z"/>
	</g>
</g>
<g>
	<g>
		<path d="M395.419,149.679c0.133-0.13,0.272-0.252,0.403-0.384l10.651-10.651c14.2-14.199,14.2-37.305,0-51.505l-19.89-19.891
			V29.125C386.583,13.065,373.517,0,357.458,0H154.544c-16.059,0-29.125,13.065-29.125,29.125v38.124l-19.89,19.891
			c-14.199,14.199-14.2,37.305,0,51.505l10.651,10.649c0.132,0.132,0.27,0.254,0.403,0.384c-27.63,46.749-42.7,105.525-42.7,167.655
			c0,66.713,17.533,130.053,49.372,178.356c6.732,10.213,18.049,16.31,30.273,16.31h204.945c12.223,0,23.54-6.097,30.273-16.311
			c31.838-48.302,49.372-111.642,49.372-178.355C438.118,255.204,423.049,196.429,395.419,149.679z M157.929,32.508h196.145v21.297
			H157.929V32.508z M128.516,110.127l23.813-23.813h207.343l23.813,23.813c1.524,1.524,1.524,4.006,0,5.531l-10.651,10.651
			c-1.525,1.525-4.023,1.507-5.531,0c-6.879-6.878-16.023-10.667-25.752-10.667c-9.727,0-18.873,3.788-25.752,10.667
			c-1.489,1.489-3.964,1.565-5.531,0c-6.878-6.878-16.025-10.666-25.752-10.666c-9.681,0-18.84,3.754-25.753,10.667
			c-1.529,1.529-3.998,1.532-5.531,0c-6.878-6.878-16.024-10.667-25.752-10.667c-9.728,0-18.873,3.788-25.752,10.667
			c-1.552,1.552-4.024,1.507-5.531,0c-6.878-6.878-16.024-10.667-25.752-10.667c-9.727,0-18.873,3.788-25.751,10.666
			c-1.49,1.49-3.981,1.551-5.531,0l-10.651-10.649C126.991,114.133,126.991,111.651,128.516,110.127z M361.604,477.796
			c-0.7,1.061-1.87,1.694-3.131,1.694H153.529c-1.242,0-2.442-0.649-3.131-1.693c-28.377-43.052-44.005-100.039-44.005-160.464
			c0-59.528,15.016-115.291,42.413-158.022c6.849-1.3,13.514-4.653,18.878-10.017c1.529-1.529,3.999-1.532,5.53,0
			c6.878,6.878,16.023,10.667,25.752,10.667c9.727,0,18.873-3.788,25.752-10.667c1.529-1.529,3.999-1.532,5.531,0
			c6.878,6.878,16.023,10.667,25.752,10.667c9.728,0,18.873-3.788,25.752-10.667c1.529-1.529,3.999-1.532,5.531,0
			c6.863,6.863,16.001,10.667,25.752,10.667c9.727,0,18.873-3.788,25.752-10.667c1.274-1.274,3.095-1.411,4.434-0.779
			c1.542,0.729,7.405,8.407,19.973,10.795c27.397,42.731,42.414,98.494,42.414,158.022
			C405.61,377.759,389.982,434.747,361.604,477.796z"/>
	</g>
</g>
<g>
</g>
<g>
</g>
<g>
</g>
<g>
</g>
<g>
</g>
<g>
</g>
<g>
</g>
<g>
</g>
<g>
</g>
<g>
</g>
<g>
</g>
<g>
</g>
<g>
</g>
<g>
</g>
<g>
</g>
</svg>
