<svg xmlns="http://www.w3.org/2000/svg" width="640" height="480" viewBox="-175 -80 640 480">
  <path d="M294.7 182c-1.4-2-3.6-3.4-6-3.6L274 177c5.7-6.7 9.5-13.8 12-20.3 6.2-17 4.8-32.2 4.7-32.8-.3-2.6-1.6-4.8-3.7-6-2-1.4-4.6-1.7-7-1l-14.2 5.2c2.5-8.6 3-16.7 2.3-23.6-1.4-18-9.3-31.2-9.6-31.8-1.3-2-3.5-3.5-6-3.7-2.3-.2-4.8.6-6.5 2.3l-45.6 45.5c-1.5-.7-3-1.4-4.7-2-6-1.7-11.6-2.7-17.2-2.7-11.8 0-22.7 4.3-31.4 12-11-9.5-22.6-11.7-30.8-11.7-5.2 0-10.7 1-16.2 2.6-1.5.4-3 1-4.6 1.7L50 65.3c-1.7-1.7-4-2.5-6.6-2.2-2.4.3-4.6 1.7-5.8 3.8-.4.6-8.3 13.8-9.8 31.8-.5 7-.2 15 2.3 23.6l-14-5c-2.4-1-5-.6-7 .7-2 1.2-3.5 3.4-3.7 6 0 .5-1.6 15.8 4.8 32.7 2.5 6.5 6.2 13.6 12 20.3l-14.8 1.4c-2.4.2-4.6 1.6-6 3.6-1.3 2-1.6 4.7-.8 7 .3.6 5.4 15 18.3 27.4 9.5 9.2 24.6 18.7 46.5 18.7 6.2 0 12.8-.6 20-2.3 3-.7 8.3-2 14.6-4.6 9.7 9.6 21.4 19 35 28 4 2.4 8.4 3.8 13 3.8 4.7 0 9.2-1.4 13-4 13.7-9 25.4-18.3 35-27.8 6.5 2.5 12 4 15 4.7 7 1.7 13.8 2.4 20 2.4 22 0 37-9.4 46.4-18.6 13-12.5 18-26.8 18.3-27.4.8-2.3.5-5-.8-7zm-80.4 35c-2-.4-4.3-1-6.6-1.8 3.5-4.2 6.6-8.5 9.3-13 2.8-4.5 5.2-9.2 7.2-14l51.4 5c-7.8 12.6-26 32.2-61.3 24zm-194-23.8l51.2-4.8c2 4.6 4.3 9.3 7.2 14 2.7 4.3 5.8 8.6 9.3 13l-6.4 1.7c-35.2 8.4-53.4-11.2-61.3-23.8zm1-57l45 15.8c-1 6.8-.8 13.7.5 20.7L44 175c-16.6-11-21.4-28-22.6-39zM47 84.7L82 120l-4 4.4c-3 3.7-5.4 7.8-7.4 12.2l-19.8-7c-10.4-17-7.4-34.3-4-44.8zm198.3 44.7l-20.2 7.2c-2-4.4-4.4-8.6-7.4-12.3-1.2-1.5-2.5-3-4-4.3L249 85c1.4 4 2.7 9.2 3 15 1 10.7-1.3 20.6-6.7 29.5zM271 151c-4 10.3-10.3 18.2-19 24l-23-2.3c1.2-7 1.5-14 .5-20.6l45-16c-.5 4.4-1.6 9.7-3.6 15z"/>
  <path d="M147.8 84.5c28.5 0 57.3-7.5 57.3-24.2S176.4 36 148 36s-57.3 7.6-57.3 24.3c0 16.7 28.8 24.2 57.3 24.2zm0-32.4c23 0 36.7 5.3 40.6 8.3-4 3-17.7 8.2-40.6 8.2-23 0-36.7-5.2-40.6-8.2 4-3 17.7-8.2 40.6-8.2z"/>
</svg>
