<?xml version="1.0" encoding="iso-8859-1"?>
<!-- Generator: Adobe Illustrator 19.0.0, SVG Export Plug-In . SVG Version: 6.00 Build 0)  -->
<svg version="1.1" id="Capa_1" xmlns="http://www.w3.org/2000/svg" xmlns:xlink="http://www.w3.org/1999/xlink" x="0px" y="0px"
	 width="720px" height="720px" viewBox="0 0 720 720" style="enable-background:new 0 0 720 720;" xml:space="preserve">
<g>
	<path d="M294.672,182.024c-1.327-2.07-3.532-3.415-5.981-3.648l-14.82-1.403c5.827-6.664,9.586-13.809,12.007-20.232
		c6.368-16.895,4.872-32.236,4.805-32.881c-0.252-2.44-1.611-4.63-3.686-5.94c-2.077-1.311-4.637-1.595-6.948-0.774l-14.2,5.042
		c2.454-8.566,2.803-16.683,2.242-23.561c-1.466-17.995-9.378-31.225-9.714-31.779c-1.273-2.101-3.442-3.5-5.882-3.795
		c-2.434-0.294-4.877,0.547-6.616,2.286l-45.456,45.459c-1.565-0.728-3.157-1.356-4.765-1.871
		c-5.827-1.86-11.604-2.802-17.182-2.802c-11.78,0-22.653,4.204-31.388,11.998c-11.186-9.604-22.645-11.837-30.872-11.837
		c-5.262-0.001-10.708,0.887-16.188,2.638c-1.551,0.496-3.087,1.095-4.599,1.789L50.058,65.34c-1.738-1.738-4.182-2.582-6.616-2.286
		c-2.439,0.295-4.608,1.694-5.882,3.795c-0.336,0.555-8.248,13.784-9.714,31.779c-0.561,6.878-0.212,14.994,2.242,23.561
		l-14.2-5.042c-2.311-0.819-4.873-0.535-6.948,0.774c-2.074,1.311-3.434,3.5-3.686,5.94c-0.067,0.645-1.564,15.986,4.805,32.881
		c2.421,6.423,6.18,13.567,12.007,20.232l-14.82,1.403c-2.448,0.232-4.653,1.577-5.98,3.648c-1.327,2.069-1.629,4.635-0.817,6.956
		c0.211,0.605,5.324,14.955,18.243,27.46c9.466,9.162,24.592,18.697,46.539,18.696c6.142,0,12.818-0.747,20.053-2.457
		c2.896-0.684,8.207-2.11,14.525-4.576c9.692,9.484,21.366,18.768,34.984,27.776c3.879,2.566,8.389,3.921,13.043,3.921
		c4.655,0,9.165-1.356,13.044-3.921c13.654-9.032,25.354-18.342,35.061-27.852c6.4,2.511,11.791,3.96,14.715,4.651
		c7.237,1.711,13.91,2.457,20.053,2.457c21.944-0.001,37.074-9.534,46.539-18.696c12.919-12.505,18.032-26.855,18.243-27.46
		C296.301,186.659,295.999,184.094,294.672,182.024z M214.336,217.109c-2.137-0.505-4.375-1.136-6.656-1.863
		c3.491-4.272,6.6-8.577,9.285-12.909c2.871-4.632,5.262-9.312,7.195-13.997l51.442,4.87
		C267.78,205.813,249.513,225.422,214.336,217.109z M20.334,193.21l51.184-4.846c1.934,4.679,4.32,9.35,7.188,13.975
		c2.7,4.354,5.825,8.682,9.34,12.977c-2.208,0.698-4.373,1.305-6.443,1.794C46.424,225.427,28.15,205.804,20.334,193.21z
		 M21.415,136.088l44.819,15.913c-0.005,0.033-0.011,0.066-0.016,0.098c-0.926,6.704-0.702,13.629,0.606,20.638l-22.817,2.16
		C27.359,163.97,22.633,147.032,21.415,136.088z M46.932,84.841l35.149,35.151c-1.42,1.387-2.775,2.861-4.042,4.427
		c-2.987,3.69-5.47,7.784-7.414,12.163l-19.867-7.055C40.408,112.556,43.36,95.253,46.932,84.841z M245.277,129.492l-20.195,7.171
		c-1.949-4.409-4.443-8.53-7.449-12.243c-1.227-1.516-2.536-2.948-3.907-4.298l35.228-35.229c1.402,4.116,2.723,9.289,3.19,15.033
		C253.024,110.742,250.708,120.622,245.277,129.492z M270.906,151.098c-3.831,10.164-10.158,18.109-18.873,23.808l-23.176-2.194
		c1.305-7.001,1.612-13.919,0.612-20.615v-0.006l44.994-15.979C273.971,140.438,272.943,145.693,270.906,151.098z"/>
	<path d="M147.803,84.469c28.538,0,57.333-7.473,57.333-24.166c0-16.693-28.795-24.166-57.333-24.166S90.47,43.609,90.47,60.303
		C90.47,76.996,119.264,84.469,147.803,84.469z M147.803,52.137c22.869,0,36.714,5.147,40.585,8.166
		c-3.871,3.018-17.716,8.166-40.585,8.166c-22.869,0-36.714-5.147-40.585-8.166C111.089,57.284,124.933,52.137,147.803,52.137z"/>
</g>
<g>
</g>
<g>
</g>
<g>
</g>
<g>
</g>
<g>
</g>
<g>
</g>
<g>
</g>
<g>
</g>
<g>
</g>
<g>
</g>
<g>
</g>
<g>
</g>
<g>
</g>
<g>
</g>
<g>
</g>
</svg>
