<svg xmlns="http://www.w3.org/2000/svg" id="beyond" alt="beyond" title="beyond" width="100%" height="100%" viewBox="-14 -14 120 120">
  <path d="M8.2 26.8c8.8-7.5 15.7-13.4 34.4-3 9 5.2 16.2 7 22.3 7C75.3 31 82.2 25.2 88 20c2-2 2.4-5 .6-7.2s-5-2.5-7-.7C73 19.7 66 25.7 47.4 15 22.7 1 11 11 1.8 19c-2 1.8-2.4 5-.6 7.2 1.8 2 5 2.4 7 .6zm73.6 11C73 45 66 51 47.4 40.4c-24.7-14-36.3-4-45.6 4-2 1.8-2.4 5-.6 7.2 1.8 2.2 5 2.4 7 .6C17 44.8 24 39 42.6 49.5c9 5 16.2 7 22.3 7 10.4 0 17.3-6 23.2-11 2-1.8 2.4-5 .6-7.2-1.8-2.2-5-2.4-7-.6zm0 25.4c-8.8 7.5-15.7 13.4-34.4 3C22.7 52 11 62 1.8 70c-2 2-2.4 5-.6 7.2 1.8 2.2 5 2.5 7 .7C17 70.3 24 64.3 42.6 75c9 5 16.2 7 22.3 7 10.4 0 17.3-6 23.2-11 2-1.8 2.4-5 .6-7.2-1.8-2-5-2.4-7-.6z"/>
</svg>
