<svg xmlns="http://www.w3.org/2000/svg" id="wondering" alt="wondering" title="wondering" width="100%" height="100%" viewbox="-150 -35 800 600">
  <path d="M406 47.6c-7 0-13.7 1.6-19.7 4.3-12-24-36.8-40.5-65.4-40.5-18.7 0-35.7 7-48.6 18.4-21.7-18.6-50.4-30-82-30C123.6 0 69.4 50.6 68 113.5c-25 11.6-42.5 37-42.5 66.4 0 34 23.2 62.4 54.7 70.6l338.6 2.3c39-1.5 70.5-33.6 70.5-73 0-28.3-16-52.8-39.4-65 2.5-6 4-12.4 4-19.3 0-26.6-21.5-48-48-48zM141.8 372.4c8.5-16.5 9.5-91.4 9.5-91.4s-60.5 44-69 60.6c-8.5 16.4-2 36.6 14.4 45 16.4 8.6 36.6 2.2 45-14.2zM266 372.4c8.6-16.5 9.7-91.4 9.7-91.4s-60.6 44-69 60.6c-8.6 16.4-2.2 36.6 14.3 45 16.4 8.6 36.6 2.2 45-14.2zM355 386.7c16.3 8.5 36.5 2 45-14.3 8.5-16.5 9.5-91.4 9.5-91.4s-60.5 44-69 60.6c-8.5 16.4-2 36.6 14.4 45zM125.4 511c16.4 8.5 36.6 2 45-14.3 8.6-16.5 9.6-91.4 9.6-91.4s-60.5 44.2-69 60.6c-8.5 16.3-2 36.5 14.4 45zM249.7 511c16.4 8.5 36.6 2 45-14.3 8.6-16.5 9.7-91.4 9.7-91.4s-60.6 44.2-69 60.6c-8.6 16.3-2.2 36.5 14.3 45z"/>
</svg>
