<svg xmlns="http://www.w3.org/2000/svg" id="fudge" alt="fudge" title="fudge" width="100%" height="100%" viewbox="-140 -40 800 600">
  <path d="M345.8 222.8H166.2c-20.6 0-37.3 16.7-37.3 37.4v92.6c0 20.6 16.6 37.3 37.2 37.3h179.6c20.6 0 37.4-16.6 37.4-37.2v-92.6c0-20.7-16.8-37.4-37.4-37.4zm0 134.8H166.2c-2.7 0-4.8-2.2-4.8-4.8v-92.6c0-2.7 2-5 4.8-5h179.6c2.7 0 4.8 2.3 4.8 5v92.6c0 2.6-2 4.8-4.8 4.8z"/>
  <path d="M395.4 149.7l.4-.4 10.7-10.7c14.2-14.2 14.2-37.3 0-51.5l-20-19.8v-38c0-16-13-29.2-29-29.2h-203c-16 0-29 13-29 29v38.2l-20 20c-14.2 14-14.2 37.2 0 51.4l10.7 10.7.4.4C89 196.4 74 255.2 74 317.3c0 66.7 17.4 130 49.3 178.4 6.7 10.2 18 16.3 30.2 16.3h205c12.2 0 23.5-6 30.2-16.3 32-48.3 49.4-111.7 49.4-178.4 0-62-15-121-42.6-167.6zM158 32.5h196v21.3H158V32.5zM128.4 110l23.8-23.7h207.4l23.8 23.8c1.5 1.7 1.5 4 0 5.7l-10.7 10.6c-1.5 1.5-4 1.5-5.5 0-7-7-16-10.7-25.7-10.7-9.8 0-19 3.8-25.8 10.7-1.5 1.5-4 1.6-5.5 0-7-7-16-10.7-25.8-10.7-9.7 0-18.8 3.8-25.7 10.7-1.6 1.5-4 1.5-5.6 0-6.8-7-16-10.7-25.7-10.7s-19 3.8-25.8 10.7c-1.5 1.6-4 1.5-5.5 0-7-7-16-10.7-25.8-10.7-9.7 0-18.8 3.8-25.7 10.7-1.5 1.5-4 1.6-5.5 0l-10.7-10.6c-1.5-1.6-1.5-4 0-5.6zm233 367.8c-.6 1-1.8 1.7-3 1.7h-205c-1.2 0-2.4-.7-3-1.7-28.5-43-44-100-44-160.5 0-59.5 15-115.3 42.3-158 7-1.3 13.5-4.6 19-10 1.4-1.5 4-1.5 5.4 0 7 7 16 10.7 25.8 10.7 9.7 0 18.8-3.8 25.7-10.7 1.5-1.5 4-1.5 5.5 0 7 7 16 10.7 25.8 10.7 9.7 0 19-3.8 25.8-10.7 1.5-1.5 4-1.5 5.5 0 6.8 7 16 10.7 25.7 10.7 9.8 0 19-3.8 25.8-10.7 1.3-1.3 3-1.4 4.4-.8 1.6.7 7.4 8.4 20 10.8 27.4 42.7 42.4 98.5 42.4 158 0 60.5-15.6 117.4-44 160.5z"/>
</svg>
